<?xml version="1.0" encoding="UTF-8" standalone="no"?>
<!-- Created with Inkscape (http://www.inkscape.org/) -->

<svg
   xmlns:dc="http://purl.org/dc/elements/1.1/"
   xmlns:cc="http://creativecommons.org/ns#"
   xmlns:rdf="http://www.w3.org/1999/02/22-rdf-syntax-ns#"
   xmlns:svg="http://www.w3.org/2000/svg"
   xmlns="http://www.w3.org/2000/svg"
   xmlns:sodipodi="http://sodipodi.sourceforge.net/DTD/sodipodi-0.dtd"
   xmlns:inkscape="http://www.inkscape.org/namespaces/inkscape"
   viewBox="0 0 116.68978 138.50134"
   version="1.1"
   id="svg3750"
   inkscape:version="0.92.4 (5da689c313, 2019-01-14)"
   sodipodi:docname="selling-debrecen-logo.svg"
   style="fill: currentColor;">
  <defs
     id="defs3744" />
  <sodipodi:namedview
     id="base"
     pagecolor="#ffffff"
     bordercolor="#666666"
     borderopacity="1.0"
     inkscape:pageopacity="0.0"
     inkscape:pageshadow="2"
     inkscape:zoom="0.35"
     inkscape:cx="353.37326"
     inkscape:cy="-455.40802"
     inkscape:document-units="mm"
     inkscape:current-layer="layer1"
     showgrid="false"
     inkscape:pagecheckerboard="true"
     fit-margin-top="0"
     fit-margin-left="0"
     fit-margin-right="0"
     fit-margin-bottom="0"
     inkscape:window-width="1920"
     inkscape:window-height="991"
     inkscape:window-x="-9"
     inkscape:window-y="-9"
     inkscape:window-maximized="1" />
  <metadata
     id="metadata3747">
    <rdf:RDF>
      <cc:Work
         rdf:about="">
        <dc:format>image/svg+xml</dc:format>
        <dc:type
           rdf:resource="http://purl.org/dc/dcmitype/StillImage" />
        <dc:title></dc:title>
      </cc:Work>
    </rdf:RDF>
  </metadata>
  <g
     inkscape:label="Layer 1"
     inkscape:groupmode="layer"
     id="layer1"
     transform="translate(80.267508,110.16139)">
    <path
       style="stroke-width:0.35277775;"
       d="m -29.729882,27.742581 c -27.012026,-3.68009 -46.333287,-25.9139998 -49.839567,-57.352812 -5.203172,-46.653871 19.139413,-80.627669 57.715665,-80.551029 35.437122,0.0704 58.252166,27.064918 58.276036,68.951579 0.02561,44.9433022 -27.9956238,74.150652 -66.152134,68.952262 z m 5.257705,-3.95296 c -2.609027,-10.9476 0.988327,-17.9977598 16.0365942,-31.4288298 17.49733,-15.6169322 17.76176,-29.0915532 0.83666,-42.6344332 -2.6984402,-2.159201 -5.5092492,-4.721429 -6.2462542,-5.693849 -6.70333,-8.844561 0.291923,-19.461631 12.8226452,-19.461631 2.904699,0 2.97829,-0.198244 0.77638798,-2.091362 -3.03828998,-2.612207 -7.24711998,-3.526565 -10.67153018,-2.318361 -2.222759,0.784233 -2.850848,0.672788 -5.236535,-0.929161 -3.295981,-2.213198 -2.690455,-2.76248 3.054866,-2.771122 4.4446512,-0.0067 4.8740902,-0.758037 1.427609,-2.497809 -4.066545,-2.052789 -24.079948,-2.530821 -22.200534,-0.530272 0.964393,1.026546 0.964327,1.026848 -0.86987,4.076614 -5.165712,8.589132 -6.317052,20.238604 -3.138509,31.755914 1.267418,4.592428 1.025044,4.50157 4.817695,1.80598 4.439467,-3.15531 5.016936,-3.015272 11.232073,2.723829 12.6380162,11.670041 12.4269262,26.231551 -0.607497,41.9051532 -8.476183,10.19243 -12.105298,17.6439798 -12.112934,24.8711398 -0.0028,2.83126 0.07376,2.90299 3.701693,3.45924 1.552223,0.23799 3.060348,0.48098 3.35139,0.53998 2.262759,0.4587 3.260148,0.20128 3.02605,-0.78102 z m 5.360217,-0.46814 c 0.509564,-6.41017 2.424327,-10.50195 6.728926,-14.3794298 6.5304112,-5.88246 7.4033302,-6.84489 9.1490322,-10.0873 2.54131798,-4.72016 2.89387798,-4.31421 2.88964998,3.32723 -0.004,6.25218 -1.28345198,10.8099798 -3.65784098,13.0247698 -1.239531,1.15621 -1.307949,0.97166 -0.91309,-2.46299 0.41221,-3.5855298 0.44401,-5.9756698 0.0795,-5.9756698 -0.5129,0 -7.1624802,6.4315998 -8.1827402,7.9144998 -2.859238,4.15576 -3.648548,10.39182 -1.253479,9.9033 0.389668,-0.0795 2.00891,-0.39333 3.59832,-0.69745 22.1033,-4.22919 38.558324,-23.86031985 42.594444,-50.815914 6.74105,-45.02068 -16.646644,-79.930297 -53.598156,-80.003267 -33.37692,-0.0659 -54.661977,25.450388 -54.675733,65.544669 -0.0037,10.76864 0.68418,17.45107 2.333184,22.665971 0.511528,1.617678 -0.400509,2.231077 15.211474,-10.230552 7.839289,-6.257401 15.273264,-12.177601 16.519941,-13.156009 2.655485,-2.084051 2.670299,-2.16762 1.247947,-7.04052 -3.607168,-12.357981 -2.674647,-25.287364 2.429898,-33.690349 1.536513,-2.529377 1.603529,-2.214475 -0.793794,-3.730239 -3.517504,-2.224024 -5.73264,-4.866655 -5.73264,-6.838965 0,-0.895823 -0.06775,-0.901713 2.089094,0.181608 3.341074,1.678126 5.835822,1.952718 16.907039,1.860924 14.227162,-0.11796 18.5092422,1.176774 21.2148822,6.414554 0.448059,0.867384 1.047718,1.381924 1.998578,1.714894 5.207841,1.823662 9.295961,6.70029 9.295961,11.088931 0,2.043221 -0.323499,2.225061 -2.192759,1.232551 -5.393142,-2.863559 -15.0355222,0.402601 -16.4730512,5.579909 -1.235077,4.448191 0.004,6.562341 7.4975592,12.791231 17.8498708,14.83763 17.7345498,30.72066 -0.338889,46.6723532 -10.2554672,9.05151 -11.9875142,10.87417 -14.0589952,14.7945 -2.313406,4.3781698 -2.992797,11.0346198 -1.484357,14.5431898 0.695026,1.6166 1.435436,1.54755 1.570095,-0.14643 z m 18.42484818,-7.88094 c 0,-0.27487 0.14932,-0.55268 0.331838,-0.61736 0.779991,-0.2764 3.90624202,-4.66305 4.66116202,-6.5403898 0.754808,-1.87704 0.823158,-2.57655 0.837488,-8.57025005 0.01921,-8.01653995 0.36241,-9.31005995 3.29987,-12.43542415 1.264502,-1.345379 2.4127408,-1.788678 2.0265998,-0.78241 -1.1317288,2.949231 -1.3509888,5.0795242 -1.1139488,10.8227542 0.346901,8.40533 -0.426,11.3773 -3.934219,15.1278698 -2.218111,2.37134 -6.10879002,4.27898 -6.10879002,2.99521 z m -37.10430418,3.12194 c 0.888336,-8.13571 3.813484,-14.0940998 11.813969,-24.0645198 13.093324,-16.3172532 13.306295,-28.0903512 0.70703,-39.0853632 -4.281972,-3.73675 -2.702923,-4.542399 -23.218087,11.84602 -6.20889,4.959929 -14.106703,11.21283 -17.550696,13.895321 -4.96613,3.868079 -6.261806,5.049481 -6.261806,5.709529 0,0.94784 2.680533,7.4776632 3.378041,8.2289532 0.606389,0.65316 3.131013,-1.2655 25.890431,-19.6762122 7.289511,-5.896681 6.077077,-5.69559 11.589935,-1.92232 8.670584,5.93457 10.046311,7.33052 9.2607,9.396839 -0.51162,1.345649 -0.782934,1.244769 -4.382744,-1.62963 -9.581057,-7.650361 -8.99156,-7.531259 -14.621978,-2.954171 -7.839175,6.372641 -18.853779,15.1487442 -22.216515,17.7014442 -1.789182,1.35819 -3.248095,2.70757 -3.242029,2.99860995 0.01488,0.71384 3.778679,5.98465005 4.460331,6.24622005 1.863001,0.7149 12.709071,-6.88593 19.595212,-13.73215 4.163277,-4.1391432 4.953691,-4.4348122 3.949806,-1.47751 -1.693635,4.98923 -10.527294,12.95133 -18.753335,16.90308 -2.75725,1.32458 -2.753981,1.35842 0.417181,4.3199398 4.821671,4.5029 15.339034,10.73612 18.571377,11.00651 0.113376,0.009 0.389305,-1.66028 0.613177,-3.71059 z"
       id="path3724"
       inkscape:connector-curvature="0" />
  </g>
</svg>
